<?xml version="1.0" encoding="UTF-8" standalone="no"?>
<!-- Created with Inkscape (http://www.inkscape.org/) -->

<svg
   width="35.825855mm"
   height="37.746708mm"
   viewBox="0 0 35.825855 37.746708"
   version="1.1"
   id="svg5"
   xml:space="preserve"
   inkscape:version="1.2.2 (732a01da63, 2022-12-09)"
   sodipodi:docname="cookbook palette1.svg"
   xmlns:inkscape="http://www.inkscape.org/namespaces/inkscape"
   xmlns:sodipodi="http://sodipodi.sourceforge.net/DTD/sodipodi-0.dtd"
   xmlns="http://www.w3.org/2000/svg"
   xmlns:svg="http://www.w3.org/2000/svg"><sodipodi:namedview
     id="namedview7"
     pagecolor="#ffffff"
     bordercolor="#000000"
     borderopacity="0.25"
     inkscape:showpageshadow="2"
     inkscape:pageopacity="1"
     inkscape:pagecheckerboard="0"
     inkscape:deskcolor="#d1d1d1"
     inkscape:document-units="mm"
     showgrid="false"
     inkscape:zoom="1"
     inkscape:cx="629.5"
     inkscape:cy="383"
     inkscape:window-width="1920"
     inkscape:window-height="1017"
     inkscape:window-x="-8"
     inkscape:window-y="352"
     inkscape:window-maximized="1"
     inkscape:current-layer="svg5" /><defs
     id="defs2" /><g
     inkscape:groupmode="layer"
     id="g2597"
     inkscape:label="design1"
     transform="matrix(0.79058154,0,0,0.79058154,-8.8849948,13.335951)"
     style="display:inline"><g
       id="g2579"
       transform="matrix(0.44625545,0,0,0.45418309,9.6279161,-21.105164)"
       inkscape:label="Logo"
       inkscape:export-filename="g2579.png"
       inkscape:export-xdpi="96"
       inkscape:export-ydpi="96"><ellipse
         style="display:inline;opacity:1;fill:#4e799d;fill-opacity:1;stroke:#df3d48;stroke-width:1.31549;stroke-dasharray:none;stroke-opacity:1"
         id="ellipse2517"
         cx="-144.59653"
         cy="74.074699"
         inkscape:label="circle"
         rx="39.482777"
         ry="40.896759"
         transform="matrix(1.2648917,0,0,1.2648917,237.28159,-31.806501)" /><g
         id="g2525"
         inkscape:label="backlines"
         style="display:inline;fill:#df3d48;fill-opacity:1"
         transform="matrix(0.45125775,0,0,0.45125775,15.022644,-6.9067471)"><path
           style="display:inline;opacity:1;fill:#df3d48;fill-opacity:1;stroke-width:0.352778"
           d="m 72.556308,199.03255 c 0,0 -9.373935,-0.0291 -15.975709,-0.0414 -5.859977,-0.0109 -7.721399,-0.12827 -8.68965,-0.54816 l 1e-5,1.2e-4 c -1.617818,-0.70158 -2.733919,-1.77281 -3.593215,-3.44876 -0.60507,-1.18012 -0.684001,-1.92408 -0.583029,-5.49551 0.105114,-3.71793 0.204894,-4.26064 0.998725,-5.43209 1.133849,-1.67323 3.834017,-3.05334 5.973819,-3.05334 h 1.601953 l -2.26115,-2.20486 c -2.970435,-2.89649 -4.708173,-5.12728 -6.411183,-8.23025 l -1.395253,-2.54223 -3.957567,-0.12703 c -3.530921,-0.11333 -4.131372,-0.22908 -5.569823,-1.07374 -2.201602,-1.29279 -3.495892,-3.25058 -3.745076,-5.66493 -0.320039,-3.10088 0.805077,-5.45898 3.533059,-7.40482 1.102358,-0.7863 1.311866,-0.80055 14.324248,-0.97436 l 13.205524,-0.17639 1.064394,-2.09105 c 1.343349,-2.63907 4.500015,-6.02314 7.051107,-7.55905 4.245448,-2.55602 8.162459,-3.71568 14.948359,-4.42558 4.911001,-0.51376 6.681311,-1.1558 7.960257,-2.88699 0.632743,-0.85647 0.628425,-0.87134 -0.529166,-1.82257 -4.080091,-3.35275 -7.656809,-8.26207 -9.15506,-12.56602 l -0.998446,-2.86819 -0.0047,-17.19519 -0.0047,-17.195196 -1.098042,-0.972862 c -6.574434,-5.824926 -4.695458,-15.207513 3.856902,-19.259264 2.23121,-1.057057 2.615589,-1.122889 7.234064,-1.239005 l 4.877644,-0.122637 2.53069,-2.552079 c 4.139116,-4.174106 8.208176,-5.738936 14.057296,-5.405981 4.9627,0.282496 9.31395,2.759548 11.24642,6.402293 l 0.82906,1.562791 5.13229,0.138628 c 6.29348,0.169989 8.1644,0.775532 11.26485,3.646008 5.15965,4.776928 5.40407,11.393882 0.59837,16.199573 l -1.61565,1.615659 -0.003,15.777524 c -0.001,9.285318 -0.15455,16.713658 -0.37178,18.052558 -0.80599,4.96769 -3.81428,10.1968 -8.40119,14.60322 -1.38213,1.3279 -2.51309,2.54176 -2.51309,2.69748 0,0.61221 2.53279,2.46076 3.78773,2.76445 0.73015,0.1767 3.15317,0.50788 5.38449,0.73596 2.23132,0.22808 4.93007,0.64093 5.99722,0.91744 7.41664,1.9217 12.72946,5.87855 15.38801,11.46058 0.50825,1.06715 1.55902,4.52761 2.33504,7.6899 l 1.41095,5.74961 1.81008,-0.10517 1.81009,-0.10517 0.0918,-15.73534 0.0918,-15.73534 -2.47628,-0.2076 c -4.08711,-0.34265 -7.12779,-2.48042 -8.3361,-5.86074 -0.33246,-0.93007 -0.45684,-4.36424 -0.46822,-12.92714 l -0.0155,-11.66059 0.91988,-1.84596 c 1.05756,-2.122253 3.4366,-4.13187 5.38142,-4.545802 0.70588,-0.150237 4.06155,-0.273159 7.45703,-0.273159 7.191,0 8.66095,0.369196 10.77157,2.705403 2.46968,2.733638 2.4576,2.655868 2.4576,15.815428 0,11.64571 -0.0119,11.84227 -0.81772,13.47825 -0.92174,1.8714 -2.76994,3.64779 -4.58377,4.40565 -0.6707,0.28024 -2.30943,0.6009 -3.64162,0.71259 l -2.42217,0.20307 v 15.80725 15.80725 l 1.25753,0.34722 c 1.72276,0.47568 4.60304,2.37608 5.61797,3.70672 0.4613,0.6048 1.2446,1.9716 1.74066,3.03734 0.86839,1.86563 0.90208,2.18989 0.90539,8.71546 0.003,5.95633 -0.0835,7.01008 -0.71387,8.69494 -0.99283,2.6536 -3.08614,4.90898 -5.79303,6.24158 -1.90317,0.93693 -2.76395,1.13156 -5.7263,1.2948 -4.70926,0.25949 -6.87198,-0.35611 -8.87133,-2.52514 -0.91949,-0.99753 -1.59837,-2.16127 -1.85473,-3.17938 l -0.40438,-1.60593 h -26.24007 -26.24006 l -0.002,1.85208 c -0.001,1.01865 -0.17726,2.48351 -0.39151,3.25524 -0.49925,1.79829 -2.57869,3.87773 -4.376976,4.37698 -0.90067,0.25004 -5.847253,0.39025 -13.812968,0.39151 l -13.054735,0.0351"
           id="path2519"
           sodipodi:nodetypes="csccsssscsscssssscsssssscccssscssscsssccscsssssscccccssscsssssssscccsssssssssccccsscc" /><path
           style="display:inline;fill:#df3d48;fill-opacity:1;stroke-width:0.352778"
           d="m 63.560318,127.64617 c -0.373352,-0.20407 -0.795454,-0.54336 -0.938005,-0.75397 -0.48539,-0.71714 -0.271797,-2.21221 0.403335,-2.8232 0.370328,-0.33514 0.867844,-1.07896 1.105595,-1.65294 0.385314,-0.93024 0.312402,-1.30367 -0.671209,-3.43764 -1.635574,-3.54842 -1.770056,-5.2348 -0.607032,-7.61193 1.583337,-3.23623 3.900406,-4.59408 5.265483,-3.08569 0.899672,0.99413 0.717395,2.461 -0.474489,3.81848 -1.346684,1.53379 -1.34674,2.62451 -2.79e-4,5.47068 1.630913,3.44746 1.411721,5.82401 -0.814938,8.83578 -0.883172,1.19458 -2.340504,1.74766 -3.268461,1.24043 z"
           id="path2521"
           inkscape:label="heat2" /><path
           style="display:inline;fill:#df3d48;fill-opacity:1;stroke-width:0.352778"
           d="m 50.419377,139.27473 c -1.015026,-1.08045 -0.96913,-1.61296 0.281471,-3.26581 1.325562,-1.75191 1.32733,-2.71482 0.01009,-5.49922 -1.79385,-3.79187 -1.210077,-7.31787 1.623462,-9.80575 1.424228,-1.25049 2.332087,-1.35135 3.315149,-0.36829 0.986031,0.98603 0.879362,2.24563 -0.305181,3.6037 -1.602095,1.83679 -1.652172,2.47562 -0.40288,5.13962 1.998874,4.26241 1.781348,6.6095 -0.886209,9.56217 -1.499676,1.65996 -2.506797,1.83546 -3.635905,0.63358 z"
           id="path2523"
           inkscape:label="heat1" /></g><g
         id="g2559"
         inkscape:label="fill"
         style="display:inline;fill:#f1faee;fill-opacity:1"
         transform="matrix(0.45125775,0,0,0.45125775,15.022644,-6.9067471)"><path
           style="display:inline;fill:#f1faee;fill-opacity:1;stroke-width:0.352778"
           d="m 112.72623,137.06317 c 5.14026,-1.05599 10.63215,-4.03027 14.83626,-8.03498 4.47895,-4.26652 7.11275,-9.73454 7.10561,-14.75195 l -0.004,-2.58363 -2.18099,-1.01513 c -2.5983,-1.20937 -5.67212,-4.14309 -6.64477,-6.34193 -0.37652,-0.85118 -0.80683,-2.40155 -0.95626,-3.44527 l -0.27169,-1.897673 -4.97974,-0.537732 c -3.00172,-0.32414 -5.21446,-0.732529 -5.57065,-1.028139 -0.92619,-0.768675 -0.60963,-2.912611 0.50311,-3.407357 1.17923,-0.524313 7.37595,-0.05356 14.38723,1.092976 2.96527,0.484903 5.45388,0.881641 5.53025,0.881641 0.0764,0 0.19024,-3.277175 0.25305,-7.282611 l 0.11419,-7.282614 1.05362,-0.74308 c 4.4571,-3.143444 5.16709,-7.084438 1.91242,-10.615341 -2.38001,-2.582006 -4.1505,-3.124673 -10.72715,-3.287946 -3.4012,-0.08443 -5.83448,-0.295628 -6.12262,-0.5314 -0.263,-0.215198 -0.83446,-1.196879 -1.26991,-2.18151 -1.47006,-3.324053 -4.67024,-5.186246 -9.01163,-5.243883 -4.67517,-0.06207 -8.23742,1.816922 -11.297417,5.95909 l -1.369702,1.854094 -5.572693,0.14187 c -6.484592,0.165082 -8.284877,0.717977 -10.633206,3.265611 -1.718476,1.864328 -2.32205,3.605326 -1.998317,5.764124 0.212221,1.4152 0.550009,1.92724 2.505534,3.798038 l 2.26024,2.162316 v 7.111619 c 0,5.455705 0.10268,7.110928 0.440973,7.108642 0.242534,-0.0018 2.672228,-0.389089 5.39932,-0.861 2.727096,-0.471908 7.172096,-1.025938 9.877778,-1.231181 4.56937,-0.346611 4.98219,-0.326792 5.80137,0.278525 2.01257,1.487135 0.87359,3.933303 -1.83141,3.933303 -0.81324,0 -3.27387,0.182006 -5.468052,0.404457 -3.781101,0.383335 -3.989423,0.445868 -3.989423,1.19756 0,0.436211 -0.33407,1.874701 -0.742375,3.196641 -0.639893,2.07173 -1.06601,2.72554 -3.086806,4.73624 -1.628852,1.62071 -2.963573,2.58723 -4.372902,3.1666 l -2.028473,0.83389 0.0052,2.13994 c 0.01125,4.6158 1.667168,8.84032 5.049062,12.88098 4.655679,5.56255 13.848309,10.78962 19.214069,10.92541 0.63877,0.0162 2.38502,-0.22198 3.88056,-0.52921 z"
           id="path2527"
           inkscape:label="head fill" /><path
           style="display:inline;fill:#f1faee;fill-opacity:1;stroke-width:0.352778"
           d="m 134.18542,101.09363 c -0.0925,-0.24113 -0.8544,-0.5154 -1.69303,-0.60948 -0.83863,-0.0941 -1.90536,-0.29435 -2.37051,-0.44506 -0.79251,-0.256769 -0.82982,-0.209507 -0.59285,0.75086 0.41659,1.68837 1.38184,3.06227 3.04283,4.33109 l 1.57075,1.19988 0.10552,-2.39443 c 0.058,-1.31694 0.0298,-2.59173 -0.0627,-2.83286 z"
           id="path2529"
           inkscape:label="hairfill right" /><path
           style="display:inline;fill:#f1faee;fill-opacity:1;stroke-width:0.352778"
           d="m 88.154076,104.10788 c 0.998128,-1.19731 2.012918,-3.70014 1.64815,-4.06491 -0.0989,-0.0989 -1.195892,0.0212 -2.437772,0.26686 l -2.257958,0.44667 -0.102923,2.93906 -0.102926,2.93906 1.112057,-0.64601 c 0.611636,-0.3553 1.575252,-1.20163 2.141372,-1.88073 z"
           id="path2531"
           inkscape:label="hairfill left" /><path
           style="display:inline;fill:#f1faee;fill-opacity:1;stroke-width:0.352778"
           d="m 174.92156,127.55048 c 0.58103,-0.30046 1.3663,-1.05452 1.74505,-1.67569 0.64331,-1.05506 0.68873,-1.84004 0.68996,-11.92515 0.001,-10.65459 -0.009,-10.81135 -0.80302,-11.98931 -1.28816,-1.91149 -1.93954,-2.074828 -8.29721,-2.080579 -6.28441,-0.0057 -7.17855,0.207849 -8.39676,2.005239 -0.62272,0.91879 -0.66975,1.76839 -0.66975,12.10067 0,14.68061 -0.39178,14.07379 9.10155,14.09731 4.36279,0.0108 5.80329,-0.10488 6.63018,-0.53249 z"
           id="path2533"
           inkscape:label="spatula top" /><path
           style="fill:#f1faee;fill-opacity:1;stroke-width:0.352778"
           d="m 117.32587,145.02358 c 3.1539,-0.75329 6.28986,-2.20697 8.10791,-3.75843 l 1.16895,-0.99754 -1.34534,-1.29864 -1.34534,-1.29864 -2.828,1.35828 c -6.13785,2.94799 -12.40834,3.72639 -17.45672,2.16701 -1.45521,-0.44949 -3.842142,-1.43749 -5.3043,-2.19555 -1.462158,-0.75807 -2.758504,-1.3783 -2.880773,-1.3783 -0.122269,0 -0.742738,0.65711 -1.378825,1.46023 l -1.156518,1.46022 1.03868,0.85315 c 5.004604,4.11067 14.918796,5.64918 23.380276,3.62821 z"
           id="path2535"
           inkscape:label="neck" /><path
           style="fill:#f1faee;fill-opacity:1;stroke-width:0.352778"
           d="m 77.168996,148.22412 v -4.21432 l -1.852084,0.54368 c -3.708128,1.08852 -8.007854,4.14693 -9.544946,6.78936 l -0.637303,1.0956 h 6.017164 6.017169 z"
           id="path2537"
           inkscape:label="shirt left shoulder" /><path
           style="fill:#f1faee;fill-opacity:1;stroke-width:0.352778"
           d="m 87.57594,147.67594 v -4.93889 l -2.645833,0.12755 c -1.455208,0.0702 -2.764896,0.19858 -2.910417,0.2854 -0.33553,0.20019 -0.350491,9.08494 -0.01587,9.41957 0.136797,0.1368 1.446485,0.20294 2.910417,0.14699 l 2.661708,-0.10173 z"
           id="path2539"
           inkscape:label="apron left top" /><path
           style="fill:#f1faee;fill-opacity:1;stroke-width:0.352778"
           d="m 137.84677,150.3426 c 0,-3.86911 -0.11906,-7.10779 -0.26458,-7.19707 -0.14552,-0.0893 -1.45521,-0.21706 -2.91042,-0.28395 l -2.64583,-0.12162 -0.0961,6.86731 c -0.0528,3.77703 -0.0181,7.07044 0.0771,7.31869 0.1208,0.3148 1.03049,0.45137 3.0065,0.45137 h 2.83329 z"
           id="path2541"
           inkscape:label="apron right top" /><path
           style="fill:#f1faee;fill-opacity:1;stroke-width:0.352778"
           d="m 127.26344,151.60245 v -5.77489 l -2.62039,1.37309 c -3.02739,1.58635 -6.74276,2.61782 -11.4137,3.1687 -5.87005,0.69229 -13.517092,-0.57638 -18.451105,-3.06111 -1.332206,-0.67089 -2.505531,-1.2198 -2.607388,-1.2198 -0.101858,0 -0.185194,1.41755 -0.185194,3.15011 v 3.15011 l 9.789587,0.11308 9.78958,0.11309 1.68359,0.98964 c 0.92598,0.5443 2.09801,1.61586 2.60452,2.38125 l 0.92093,1.39161 h 5.24478 5.24479 z"
           id="path2543"
           inkscape:label="shirt middle" /><rect
           style="display:inline;opacity:1;fill:#f1faee;fill-opacity:1;stroke-width:0.0623574"
           id="rect2545"
           width="52.652081"
           height="10.980208"
           x="46.853951"
           y="184.44574"
           ry="4.770761"
           inkscape:label="stove fill" /><path
           style="fill:#f1faee;fill-opacity:1;stroke-width:0.352778"
           d="m 111.01493,162.8561 c 1.1918,-0.6163 1.8945,-2.32161 1.44444,-3.50536 -0.17198,-0.45233 -0.75146,-1.16756 -1.28775,-1.5894 -0.79981,-0.62914 -1.35391,-0.74842 -3.08293,-0.66369 l -2.10788,0.10329 -0.0731,1.76389 c -0.0402,0.97014 -0.19054,2.3592 -0.33406,3.08681 l -0.26092,1.32291 h 2.34983 c 1.37717,0 2.76483,-0.2146 3.3524,-0.51845 z"
           id="path2547"
           inkscape:label="pot right handle" /><path
           style="fill:#f1faee;fill-opacity:1;stroke-width:0.352778"
           d="m 40.237138,161.69886 c -0.15741,-0.92163 -0.266482,-2.35038 -0.242383,-3.175 l 0.04382,-1.49931 h -2.221608 c -1.875374,0 -2.39077,0.14234 -3.307011,0.91331 -0.853822,0.71844 -1.0854,1.19329 -1.0854,2.22562 0,2.34789 1.228111,3.18486 4.69592,3.20034 l 2.402868,0.0107 -0.286201,-1.6757 z"
           id="path2549"
           inkscape:label="pot left handle" /><path
           style="fill:#f1faee;fill-opacity:1;stroke-width:0.352778"
           d="m 86.58878,179.84505 c 1.917248,-0.98514 5.17337,-3.46817 6.987131,-5.32819 3.946303,-4.04695 7.060749,-10.1998 7.470349,-14.75828 l 0.21396,-2.38125 H 72.939427 44.618638 l 0.173305,2.38125 c 0.193668,2.66096 1.693119,6.7858 3.616841,9.94959 2.462762,4.05031 6.285568,7.60956 10.898413,10.14706 l 2.163187,1.18995 11.641667,-0.12861 11.641667,-0.12861 z"
           id="path2551"
           inkscape:label="pot" /><path
           style="fill:#f1faee;fill-opacity:1;stroke-width:0.352778"
           d="m 156.544,177.24426 c 0,-6.74359 0.0575,-7.41566 0.75778,-8.86233 l 0.75779,-1.56538 -1.32361,-5.68975 c -1.57852,-6.78548 -2.72172,-9.45946 -5.13516,-12.01131 -1.83299,-1.93812 -5.72219,-4.18999 -8.03561,-4.65267 l -1.1323,-0.22646 1e-5,6.65868 1e-5,6.65868 1.23556,0.98585 c 2.28709,1.82488 2.51572,2.67345 5.48494,20.3572 1.06144,6.32156 0.55492,5.64445 4.22231,5.64445 h 3.16828 z"
           id="path2553"
           inkscape:label="shirt right" /><path
           style="fill:#f1faee;fill-opacity:1;stroke-width:0.352778"
           d="m 145.32116,184.71035 c 0.29795,-0.29795 -3.19931,-20.34728 -3.76782,-21.60038 l -0.52015,-1.14653 h -11.96868 -11.96869 l -0.77313,1.59709 c -1.51008,3.11941 -4.12342,4.36148 -9.22541,4.38465 l -3.40923,0.0155 -1.32383,2.38125 c -1.8556,3.33774 -2.702441,4.44479 -5.936902,7.76111 l -2.838577,2.91042 2.461656,0.008 c 2.993326,0.009 4.955663,0.80865 6.385593,2.60076 l 1.01495,1.27202 20.84329,1e-5 c 11.46381,1e-5 20.92592,-0.0826 21.02693,-0.18363 z"
           id="path2555"
           inkscape:label="apron middle" /><path
           style="display:inline;fill:#f1faee;fill-opacity:1;stroke-width:0.352778"
           d="m 172.1254,190.69917 c 0.84058,-0.5907 1.92519,-1.78133 2.41026,-2.64584 0.84727,-1.51002 0.88195,-1.8146 0.88195,-7.74544 0,-5.93031 -0.0348,-6.23564 -0.88195,-7.74746 -1.57509,-2.81078 -3.95232,-3.88894 -8.58199,-3.89224 -2.58268,-0.002 -2.82783,0.0647 -3.79236,1.02923 l -1.0312,1.03119 v 9.68042 9.68042 l 0.95921,0.95921 c 0.94201,0.94202 1.02689,0.95711 4.73349,0.84186 3.54448,-0.11021 3.86733,-0.18275 5.30259,-1.19135 z"
           id="path2557"
           inkscape:label="hand right" /></g><g
         id="g2571"
         style="display:inline;fill:#df3d48;fill-opacity:1"
         inkscape:label="toplines"
         transform="matrix(0.45125775,0,0,0.45125775,15.022644,-6.9067471)"><path
           style="display:inline;fill:#df3d48;fill-opacity:1;stroke-width:0.352778"
           d="m 107.88627,82.717253 c -0.67111,-0.853179 -0.73116,-1.397219 -0.73116,-6.624281 0,-6.664868 0.23787,-7.375917 2.40665,-7.193968 1.94384,0.163075 2.16818,0.931115 2.17426,7.443664 0.005,5.449147 -0.0139,5.591422 -0.86071,6.438195 -1.11772,1.117723 -2.07585,1.097333 -2.98904,-0.06361 z"
           id="path2561"
           inkscape:label="chefhat middle" /><path
           style="display:inline;fill:#df3d48;fill-opacity:1;stroke-width:0.352778"
           d="m 123.41084,87.615523 c -0.7288,-0.595333 -0.75222,-0.843477 -0.65645,-6.954213 l 0.0993,-6.336852 0.97014,-0.542315 c 0.8728,-0.487902 1.06748,-0.487902 1.94028,0 l 0.97013,0.542315 0.0993,6.336852 c 0.0958,6.110736 0.0724,6.35888 -0.65645,6.954213 -0.41567,0.339549 -1.03809,0.617361 -1.38315,0.617361 -0.34507,0 -0.96749,-0.277812 -1.38316,-0.617361 z"
           id="path2563"
           inkscape:label="chefhat right" /><path
           style="display:inline;fill:#df3d48;fill-opacity:1;stroke-width:0.352778"
           d="m 92.719172,87.615523 c -0.7288,-0.595333 -0.752224,-0.843477 -0.656445,-6.954213 l 0.09933,-6.336852 0.970139,-0.542315 c 0.8728,-0.487902 1.067477,-0.487902 1.940277,0 l 0.970139,0.542315 0.09932,6.336852 c 0.09578,6.110736 0.07236,6.35888 -0.656446,6.954213 -0.415671,0.339549 -1.038091,0.617361 -1.383157,0.617361 -0.345066,0 -0.967486,-0.277812 -1.383157,-0.617361 z"
           id="path2565"
           inkscape:label="chefhat left" /><path
           style="display:inline;opacity:1;fill:#df3d48;fill-opacity:1;stroke-width:0.352778"
           d="m 112.64317,110.37939 c -0.81357,-1.16153 -0.67409,-1.99119 0.5227,-3.10916 3.1338,-2.92741 11.27535,-1.6397 11.27535,1.78336 0,1.84315 -1.99785,2.65694 -3.88056,1.58068 -1.15442,-0.65992 -3.56475,-0.66603 -4.43049,-0.0112 -1.06155,0.80291 -2.84104,0.67857 -3.487,-0.24367 z"
           id="path2567"
           inkscape:label="eye right" /><path
           style="display:inline;opacity:1;fill:#df3d48;fill-opacity:1;stroke-width:0.352778"
           d="m 94.298721,110.37939 c -0.813562,-1.16153 -0.674081,-1.99119 0.522707,-3.10916 3.15467,-2.9469 11.275342,-1.66741 11.275342,1.77654 0,1.93882 -1.70085,2.65944 -3.75203,1.58968 -1.29319,-0.67445 -3.675769,-0.68145 -4.559012,-0.0134 -1.061558,0.80292 -2.841046,0.67857 -3.487007,-0.24367 z"
           id="path2569"
           inkscape:label="eye left" /></g><g
         id="g2577"
         transform="matrix(0.43909259,0.19638929,-0.19162734,0.44302867,29.868086,24.571497)"
         inkscape:label="Book"><path
           style="opacity:1;fill:#f1faee;fill-opacity:1;stroke:#df3d48;stroke-width:3.2;stroke-dasharray:none;stroke-opacity:1"
           d="M 6.6145832,116.54896 30.95625,101.6 48.551041,99.218749 57.149999,87.444791 87.444791,75.538541 125.14792,129.91042 95.646874,141.02291 84.798957,152.92916 61.912499,156.63333 42.730208,171.31771 Z"
           id="path2573"
           inkscape:label="book fill" /><path
           style="display:inline;fill:#df3d48;fill-opacity:1;stroke-width:0.235461"
           d="m -151.61464,178.86979 c -0.58165,-0.1489 -1.24651,-0.52135 -1.47745,-0.82768 -0.23095,-0.30633 -8.9816,-14.04247 -19.4459,-30.52474 l -19.02599,-29.96776 1.22655,-1.6299 c 4.51767,-6.00334 12.23104,-12.39737 19.47139,-16.140911 4.28343,-2.2147 6.28017,-2.900008 11.3443,-3.893543 4.21465,-0.827054 5.02577,-0.920558 7.6588,-0.884612 1.61969,0.02211 3.902,0.179937 5.07177,0.350729 1.16978,0.170796 2.15565,0.304896 2.19084,0.298005 0.0352,-0.0069 0.38534,-0.728839 0.77813,-1.604332 1.48231,-3.303863 4.69671,-7.490777 7.87468,-10.257146 3.67653,-3.200354 9.82884,-6.426907 16.31351,-8.555554 3.0078,-0.987333 11.00157,-2.706795 13.97402,-3.005816 3.30586,-0.33256 6.231934,-0.483506 6.628874,-0.341961 0.40402,0.14407 38.533672,60.350301 38.673721,61.065311 0.242844,1.23982 -0.952678,2.83667 -2.324969,3.10546 -0.282908,0.0554 -1.419788,0.058 -2.526388,0.006 -4.430668,-0.20928 -9.650878,0.47871 -14.191065,1.87027 -5.121058,1.56959 -10.791985,4.23471 -13.757049,6.46529 -4.529835,3.40773 -7.530814,7.83038 -8.603544,12.67931 -0.3041,1.37456 -0.60174,2.06642 -1.09659,2.54893 -1.11862,1.09073 -2.15919,1.13874 -5.24768,0.24213 -5.27531,-1.53146 -9.56477,-1.65382 -14.73681,-0.42038 -3.59835,0.85814 -5.40696,1.58547 -9.41556,3.7865 -6.50817,3.57348 -11.9092,8.34665 -14.77222,13.05499 -1.50869,2.48113 -2.5931,3.09168 -4.58537,2.58168 z m 3.64669,-15.14572 c 4.23954,-3.79675 10.65103,-7.81248 16.26889,-10.18973 3.16888,-1.34095 11.01922,-2.94589 14.43075,-2.95026 1.19281,-0.002 2.20281,-0.0513 2.24445,-0.11066 0.0417,-0.0593 -6.51111,-10.50396 -14.56164,-23.21029 l -14.63733,-23.1024 -2.64737,-0.46735 c -4.14184,-0.73119 -7.0271,-0.64357 -11.42138,0.34679 -4.75946,1.07266 -8.0913,2.57631 -13.19024,5.95271 -3.51623,2.32835 -8.53976,6.81325 -8.40458,7.50341 0.0431,0.22001 28.76471,45.66848 29.79477,47.14659 0.17848,0.25612 0.39743,0.45138 0.48656,0.43392 0.0891,-0.0174 0.82583,-0.62618 1.63712,-1.35273 z m -1.69276,-14.52506 c -1.05155,-1.6739 -1.87936,-3.08869 -1.83957,-3.14395 0.0398,-0.0553 1.19933,-0.81329 2.57675,-1.68447 4.74664,-3.00211 9.5907,-5.16232 13.83394,-6.16921 l 1.86153,-0.44176 1.99741,3.13698 1.9974,3.13697 -0.95802,0.24431 c -5.69299,1.45201 -9.71116,3.17016 -14.43639,6.17294 -1.48216,0.94189 -2.79076,1.73031 -2.90799,1.75205 -0.1172,0.0219 -1.07352,-1.33003 -2.12507,-3.00392 z m -7.65201,-12.07301 c -0.52827,-0.83443 -1.41722,-2.24164 -1.97542,-3.12714 l -1.01491,-1.60996 2.77277,-1.71664 c 5.26832,-3.26163 9.63518,-5.20662 13.62438,-6.06826 l 2.07564,-0.44834 1.91632,3.01034 c 1.05397,1.65569 1.93052,3.08294 1.9479,3.17167 0.0174,0.0887 -1.30904,0.48615 -2.9476,0.88316 -4.28142,1.03735 -8.27529,2.87875 -13.35919,6.15939 -1.04709,0.6757 -1.94331,1.23629 -1.99159,1.24574 -0.0483,0.009 -0.52002,-0.66553 -1.0483,-1.49998 z m -7.8138,-12.35235 c -0.0868,-0.14182 -0.96121,-1.52147 -1.94305,-3.06587 -0.98185,-1.54442 -1.71801,-2.90104 -1.63592,-3.01472 0.33056,-0.45773 5.10259,-3.3393 7.64349,-4.6155 3.00526,-1.50942 6.71108,-2.87595 9.03191,-3.33053 l 1.52243,-0.2982 1.8819,2.98319 c 1.03505,1.64075 1.95652,3.10087 2.04771,3.24472 0.12606,0.19882 -0.42636,0.37753 -2.3035,0.74521 -4.19853,0.82236 -8.78303,2.85159 -13.74505,6.08392 -1.63312,1.06383 -2.38983,1.44758 -2.49992,1.26778 z m 62.46137,16.47401 c 3.063634,-3.08258 6.721246,-5.56612 11.325807,-7.69029 3.893098,-1.79597 8.718475,-3.46653 12.79471,-4.4296 2.090718,-0.49398 3.791178,-0.94983 3.778792,-1.01307 -0.01238,-0.0632 -6.818268,-10.82478 -15.124185,-23.91457 l -15.101674,-23.799608 -2.05764,0.234235 c -2.83806,0.323076 -7.36707,1.465511 -10.63396,2.682392 -7.62035,2.838513 -12.01085,5.784114 -15.31895,10.277523 -1.61243,2.190197 -3.66137,6.451678 -3.3709,7.010988 0.26379,0.50792 28.97087,45.70173 29.14485,45.88298 0.083,0.0864 0.82156,-0.73344 1.64138,-1.8219 0.81981,-1.08846 2.13461,-2.62705 2.92177,-3.41908 z m -5.18204,-11.81117 c -1.4733,-2.31652 -1.90858,-3.16485 -1.74727,-3.4053 0.44174,-0.65845 4.30472,-3.33506 6.78724,-4.70279 2.77772,-1.53038 7.658816,-3.59851 9.56347,-4.05208 l 1.181933,-0.28143 1.672328,2.61261 c 0.919775,1.43693 1.78612,2.81584 1.925201,3.06424 0.237316,0.42383 0.135996,0.49157 -1.646375,1.10093 -5.847142,1.999 -10.861747,4.66073 -14.021457,7.44252 -0.77379,0.68124 -1.48477,1.25388 -1.57993,1.27252 -0.0952,0.0186 -1.05597,-1.3544 -2.13514,-3.0512 z m -6.83176,-10.77536 c -0.0885,-0.14437 -0.9602,-1.51984 -1.93716,-3.05658 -0.97695,-1.53676 -1.7931,-2.88003 -1.81367,-2.98505 -0.0622,-0.31777 2.62553,-2.40101 4.9683,-3.85086 2.62251,-1.62296 6.38229,-3.38801 10.00098,-4.69503 1.44578,-0.52219 2.63987,-0.93713 2.65355,-0.92211 0.46308,0.50892 3.739729,6.03774 3.674929,6.20087 -0.05132,0.12924 -1.042735,0.55382 -2.203125,0.94353 -5.123024,1.72051 -10.312034,4.50853 -13.393844,7.1964 -1.7947,1.56528 -1.73056,1.52683 -1.94996,1.16883 z m -10.3455,-16.3225 c -1.0238,-1.64173 -1.92022,-3.125691 -1.99206,-3.297681 -0.18479,-0.44246 4.03004,-3.581489 6.7745,-5.045374 3.71372,-1.980887 10.35001,-4.663627 10.78016,-4.357899 0.26756,0.190178 3.8898,5.930187 3.81211,6.040904 -0.0324,0.04619 -1.32504,0.55093 -2.87254,1.12167 -6.05376,2.232739 -10.26749,4.58481 -13.43833,7.5012 -0.60106,0.55282 -1.11748,1.00896 -1.14761,1.01363 -0.0301,0.005 -0.89243,-1.33472 -1.91623,-2.97645 z"
           id="path2575"
           inkscape:label="Book"
           transform="translate(192.08749)" /></g></g></g></svg>
